<?xml version="1.0" encoding="UTF-8"?>
<svg id="Layer_1" xmlns="http://www.w3.org/2000/svg" version="1.1" xmlns:xlink="http://www.w3.org/1999/xlink" viewBox="28 130 542 135">
  <!-- Generator: Adobe Illustrator 30.4.0, SVG Export Plug-In . SVG Version: 2.1.4 Build 226)  -->
  <defs>
    <style>
      .st0 {
        fill: #fff;
      }

      .st1 {
        fill: url(#linear-gradient1);
      }

      .st2 {
        fill: url(#linear-gradient);
      }

      .st3 {
        fill: #160a0b;
      }
    </style>
    <linearGradient id="linear-gradient" x1="29.16" y1="223.95" x2="121.42" y2="223.95" gradientTransform="translate(0 421.89) scale(1 -1)" gradientUnits="userSpaceOnUse">
      <stop offset=".37" stop-color="#02d7fb"/>
      <stop offset=".76" stop-color="#02a9fb"/>
      <stop offset="1" stop-color="#0275fc"/>
    </linearGradient>
    <linearGradient id="linear-gradient1" x1="315.8" y1="247.23" x2="380.45" y2="247.23" gradientTransform="translate(0 421.89) scale(1 -1)" gradientUnits="userSpaceOnUse">
      <stop offset=".37" stop-color="#02d7fb"/>
      <stop offset=".76" stop-color="#02a9fb"/>
      <stop offset="1" stop-color="#0275fc"/>
    </linearGradient>
  </defs>
  <polygon class="st2" points="121.37 260.91 83.01 260.92 83.07 229.19 29.16 172.5 83.09 172.46 83.14 134.99 121.38 134.97 121.42 172.46 83.24 172.53 121.4 213.47 121.37 260.91"/>
  <rect class="st1" x="315.8" y="170.95" width="64.65" height="7.42"/>
  <g>
    <path class="st3" d="M160.39,260.92h-11.04v-96.82h11.04v96.82Z"/>
    <path class="st3" d="M192.61,260.92h-10.74v-69.16h9.56l.44,13.39c2.75-4.32,6.18-7.85,10.3-10.59,4.12-2.75,8.78-4.12,13.98-4.12s9.93.86,13.61,2.57c3.68,1.72,6.64,4.05,8.9,6.99,2.26,2.94,3.87,6.38,4.86,10.3.98,3.92,1.47,8.09,1.47,12.51v38.11h-10.74v-35.9c0-3.33-.25-6.47-.74-9.42-.49-2.94-1.42-5.52-2.8-7.72-1.38-2.21-3.21-3.95-5.52-5.22-2.31-1.27-5.32-1.91-9.05-1.91-3.34,0-6.45.71-9.34,2.13-2.89,1.42-5.4,3.31-7.5,5.67-2.11,2.35-3.75,5.08-4.93,8.17s-1.77,6.3-1.77,9.64v34.58Z"/>
    <path class="st3" d="M269.12,191.76l2.5-19.13h8.24v19.13h22.22v9.71h-22.22v37.96c0,3.53.44,6.18,1.32,7.95.88,1.77,2.23,2.94,4.05,3.53,1.81.59,4.12.71,6.92.37,2.8-.34,6.11-.96,9.93-1.84v10.3c-5.98,1.77-11.06,2.6-15.23,2.5-4.17-.1-7.58-.93-10.23-2.5-2.65-1.57-4.56-3.78-5.74-6.62-1.18-2.84-1.77-6.08-1.77-9.71v-41.94h-13.98v-9.71h13.98Z"/>
    <path class="st3" d="M369.03,191.76h10.74v69.16h-9.71l-.44-12.95c-2.55,4.22-5.88,7.65-10,10.3s-8.88,3.97-14.27,3.97-9.93-.86-13.61-2.58c-3.68-1.71-6.65-4.05-8.9-6.99-2.26-2.94-3.88-6.4-4.86-10.37-.98-3.97-1.47-8.17-1.47-12.58v-37.96h10.74v34.58c0,3.63.24,7.01.74,10.15.49,3.14,1.4,5.86,2.72,8.17,1.32,2.31,3.16,4.1,5.52,5.37,2.35,1.28,5.39,1.91,9.12,1.91,3.33,0,6.45-.71,9.34-2.13,2.89-1.42,5.39-3.31,7.5-5.67,2.11-2.35,3.78-5.08,5-8.17,1.23-3.09,1.84-6.3,1.84-9.64v-34.58Z"/>
    <path class="st3" d="M406.11,191.76l2.5-19.13h8.24v19.13h22.22v9.71h-22.22v37.96c0,3.53.44,6.18,1.32,7.95s2.23,2.94,4.05,3.53c1.81.59,4.12.71,6.92.37,2.8-.34,6.11-.96,9.93-1.84v10.3c-5.98,1.77-11.06,2.6-15.23,2.5-4.17-.1-7.58-.93-10.23-2.5-2.65-1.57-4.56-3.78-5.74-6.62-1.18-2.84-1.77-6.08-1.77-9.71v-41.94h-13.98v-9.71h13.98Z"/>
    <path class="st3" d="M453.26,169.1c.44-.98,1.03-1.84,1.77-2.58.74-.74,1.59-1.32,2.58-1.77.98-.44,2.06-.66,3.24-.66s2.25.22,3.24.66c.98.44,1.86,1.03,2.65,1.77.78.74,1.4,1.6,1.84,2.58.44.98.66,2.06.66,3.24s-.22,2.26-.66,3.24c-.44.98-1.06,1.86-1.84,2.65-.79.79-1.67,1.4-2.65,1.84-.98.44-2.06.66-3.24.66s-2.26-.22-3.24-.66c-.98-.44-1.84-1.05-2.58-1.84-.74-.78-1.32-1.67-1.77-2.65-.44-.98-.66-2.06-.66-3.24s.22-2.26.66-3.24ZM455.4,191.76h10.89v69.16h-10.89v-69.16Z"/>
    <path class="st3" d="M548.54,244.58c-1.57,2.65-3.43,5.05-5.59,7.21-2.16,2.16-4.56,4.02-7.21,5.59-2.65,1.57-5.49,2.77-8.53,3.6-3.04.83-6.28,1.25-9.71,1.25-4.91,0-9.54-.96-13.9-2.87-4.37-1.91-8.17-4.49-11.4-7.72s-5.81-7.04-7.73-11.4c-1.91-4.36-2.87-9-2.87-13.91s.96-9.54,2.87-13.9c1.91-4.36,4.49-8.17,7.73-11.4,3.24-3.24,7.04-5.81,11.4-7.72,4.36-1.91,9-2.87,13.9-2.87,3.43,0,6.67.42,9.71,1.25,3.04.83,5.89,2.04,8.53,3.6,2.65,1.57,5.05,3.43,7.21,5.59,2.16,2.16,4.02,4.56,5.59,7.21l-9.56,5.59c-1.08-1.77-2.35-3.43-3.83-5-1.47-1.57-3.14-2.94-5-4.12-1.86-1.18-3.85-2.11-5.96-2.8-2.11-.69-4.34-1.03-6.7-1.03-3.43,0-6.65.66-9.64,1.99-2.99,1.32-5.62,3.14-7.87,5.44-2.26,2.31-4.05,5-5.37,8.09s-1.99,6.45-1.99,10.08.66,6.99,1.99,10.08,3.11,5.79,5.37,8.09c2.26,2.31,4.88,4.12,7.87,5.44,2.99,1.32,6.2,1.99,9.64,1.99,4.71,0,8.92-1.25,12.65-3.75,3.73-2.5,6.67-5.57,8.83-9.2l9.56,5.59Z"/>
  </g>
</svg>